<svg version="1.1" xmlns="http://www.w3.org/2000/svg" viewBox="0 0 757.5892260944588 347.63527245874525" width="757.5892260944588" height="347.63527245874525">
  <!-- svg-source:excalidraw -->
  
  <defs>
    <style>
      @font-face {
        font-family: "Virgil";
        src: url("https://excalidraw.com/Virgil.woff2");
      }
      @font-face {
        font-family: "Cascadia";
        src: url("https://excalidraw.com/Cascadia.woff2");
      }
    </style>
  </defs>
  <rect x="0" y="0" width="757.5892260944588" height="347.63527245874525" fill="#ffffff"></rect><g stroke-linecap="round"><g transform="translate(11.622312724922722 54.06143990608075) rotate(0 -0.6111562154194417 68.03681800674565)"><path d="M-1.18 -0.46 C-1.32 22.32, -1.04 114.75, -0.93 137.82 M0.4 -1.75 C0.16 21.22, -1.42 113.22, -1.62 136.22" stroke="#c92a2a" stroke-width="1" fill="none"></path></g></g><g stroke-linecap="round"><g transform="translate(11.975894429275513 191.5676980249748) rotate(0 101.32651531080751 -2.5280206494510367)"><path d="M1.18 -0.47 C34.85 -0.93, 168.95 -2.36, 202.31 -3.04 M0.35 -1.77 C33.87 -2.51, 168.29 -4.3, 201.62 -4.58" stroke="#c92a2a" stroke-width="1" fill="none"></path></g></g><g stroke-linecap="round"><g transform="translate(12.309903218575073 122.47549159285063) rotate(0 103.84501237825032 -1.0878809465444874)"><path d="M-0.46 1.17 C34.2 0.87, 173.64 -1.21, 208.15 -1.62 M1.49 0.73 C36.02 0.09, 172.86 -2.71, 207.44 -3.34" stroke="#c92a2a" stroke-width="1" fill="none"></path></g></g><g transform="translate(68.63433977224736 16.27596669940317) rotate(0 23.5 10)"><text x="0" y="14" font-family="Virgil, Segoe UI Emoji" font-size="16px" fill="#c92a2a" text-anchor="start" style="white-space: pre;" direction="ltr">[5,10]</text></g><g transform="translate(131.4782270825026 15.887380873931988) rotate(0 30.5 10)"><text x="0" y="14" font-family="Virgil, Segoe UI Emoji" font-size="16px" fill="#c92a2a" text-anchor="start" style="white-space: pre;" direction="ltr">5+10=15</text></g><g stroke-linecap="round"><g transform="translate(192.12700862948031 35.900814216914114) rotate(0 0.518524683295368 101.00900723670611)"><path d="M-0.28 -0.33 C-0.21 33.62, 0.46 169.8, 0.47 203.57 M1.78 -1.55 C1.64 32.07, -0.79 167.7, -0.74 201.84" stroke="#5c940d" stroke-width="1" fill="none"></path></g></g><g transform="translate(197.83274717357153 189.7747614466416) rotate(0 8 10)"><text x="0" y="14" font-family="Virgil, Segoe UI Emoji" font-size="16px" fill="#c92a2a" text-anchor="start" style="white-space: pre;" direction="ltr">15</text></g><g stroke-linecap="round"><g transform="translate(69.05472323445997 45.10793349835512) rotate(0 -0.9001601714491017 88.97991432307504)"><path d="M-1.16 -0.74 C-1.59 28.65, -2.27 147.64, -2.23 177.39 M0.43 1.49 C0.33 31.56, 0.24 149.11, -0.1 178.7" stroke="#364fc7" stroke-width="1" fill="none"></path></g></g><g transform="translate(79.92089757323151 195.37735807659692) rotate(0 6 10)"><text x="0" y="14" font-family="Virgil, Segoe UI Emoji" font-size="16px" fill="#c92a2a" text-anchor="start" style="white-space: pre;" direction="ltr">5</text></g><g transform="translate(78.71626147374332 256.51152119618496) rotate(0 70 30)"><text x="0" y="14" font-family="Virgil, Segoe UI Emoji" font-size="16px" fill="#5c940d" text-anchor="start" style="white-space: pre;" direction="ltr">a=rand()%15</text><text x="0" y="34" font-family="Virgil, Segoe UI Emoji" font-size="16px" fill="#5c940d" text-anchor="start" style="white-space: pre;" direction="ltr">if a&lt;5 return 0</text><text x="0" y="54" font-family="Virgil, Segoe UI Emoji" font-size="16px" fill="#5c940d" text-anchor="start" style="white-space: pre;" direction="ltr">if a &lt; 15 return 1</text></g><g stroke-linecap="round"><g transform="translate(300.1928135353278 34.044777476094396) rotate(0 -1.486477300085994 86.8340416034797)"><path d="M0.13 0.69 C-0.12 29.19, -1.68 143.53, -1.9 172.05 M-1.26 0.01 C-1.68 29.24, -3.01 144.81, -3.11 173.66" stroke="#000000" stroke-width="1" fill="none"></path></g></g><g stroke-linecap="round"><g transform="translate(298.35456276253785 205.03496581041827) rotate(0 87.46623794751952 -0.04986282893196403)"><path d="M-0.63 -0.24 C28.47 -0.1, 146.28 -0.17, 175.57 0.16 M1.24 -1.41 C30.14 -1.08, 146 1.1, 174.83 1.31" stroke="#000000" stroke-width="1" fill="none"></path></g></g><g stroke-linecap="round"><g transform="translate(302.68805959667 106.08855277750217) rotate(0 92.52478515595624 2.5437340648962845)"><path d="M-1.1 1.09 C30.04 1.76, 155.03 4.12, 186.15 4.46 M0.53 0.62 C31.63 0.89, 154.87 2.04, 185.62 2.61" stroke="#000000" stroke-width="1" fill="none"></path></g></g><g stroke-linecap="round"><g transform="translate(464.722470263501 63.4143039227331) rotate(0 1.7786463761777895 90.7025799873694)"><path d="M1.11 -1.18 C1.48 29.19, 3.22 151.99, 3.32 182.59 M0.24 0.81 C0.44 30.78, 2.91 150.17, 2.98 180.67" stroke="#000000" stroke-width="1" fill="none"></path></g></g><g transform="translate(475.67542008573264 205.90812078915405) rotate(0 3 10)"><text x="0" y="14" font-family="Virgil, Segoe UI Emoji" font-size="16px" fill="#000000" text-anchor="start" style="white-space: pre;" direction="ltr">1</text></g><g transform="translate(302.55338725282445 254.10552228334382) rotate(0 71.5 30)"><text x="0" y="14" font-family="Virgil, Segoe UI Emoji" font-size="16px" fill="#000000" text-anchor="start" style="white-space: pre;" direction="ltr">a=rand()%1</text><text x="0" y="34" font-family="Virgil, Segoe UI Emoji" font-size="16px" fill="#000000" text-anchor="start" style="white-space: pre;" direction="ltr">if a &lt; 0 return 0</text><text x="0" y="54" font-family="Virgil, Segoe UI Emoji" font-size="16px" fill="#000000" text-anchor="start" style="white-space: pre;" direction="ltr">if a &lt; 1 return 1</text></g><g transform="translate(377.71518470366345 24.611356441651196) rotate(0 18.5 10)"><text x="0" y="14" font-family="Virgil, Segoe UI Emoji" font-size="16px" fill="#000000" text-anchor="start" style="white-space: pre;" direction="ltr">[0,1]</text></g><g stroke-linecap="round"><g transform="translate(537.7173522928795 39.87628702979623) rotate(0 1.3044963588475866 93.56789855322688)"><path d="M-0.18 0.66 C0.49 31.69, 3.36 156.22, 4.34 187.18 M-1.73 -0.04 C-1.27 30.55, 2.08 154.06, 3.29 185.34" stroke="#000000" stroke-width="1" fill="none"></path></g></g><g stroke-linecap="round"><g transform="translate(542.7129881509195 214.94918169880657) rotate(0 101.9732923283027 0.47000844548063014)"><path d="M-0.93 -0.09 C33.1 0.29, 170.63 1.94, 204.88 2.13 M0.78 -1.19 C34.63 -1.15, 170.27 -0.27, 204.1 0.26" stroke="#000000" stroke-width="1" fill="none"></path></g></g><g stroke-linecap="round"><g transform="translate(707.820079274034 48.259890940779314) rotate(0 0.5237645117612146 109.15909583051416)"><path d="M-0.46 0.28 C-0.42 36.43, 1.2 181.43, 1.35 217.5 M1.5 -0.61 C1.27 35.66, 0.17 182.58, 0.39 218.93" stroke="#000000" stroke-width="1" fill="none"></path></g></g><g transform="translate(563.8245480926705 10) rotate(0 27 10)"><text x="0" y="14" font-family="Virgil, Segoe UI Emoji" font-size="16px" fill="#000000" text-anchor="start" style="white-space: pre;" direction="ltr">[99, 1]</text></g><g stroke-linecap="round"><g transform="translate(686.720610450456 50.450387382764575) rotate(0 1.1735070757639505 114.45574035262052)"><path d="M0.84 -0.61 C1.28 37.29, 2.14 190.14, 2.53 228.28 M-0.18 1.69 C0.13 39.65, 1.17 191.6, 1.68 229.52" stroke="#000000" stroke-width="1" fill="none"></path></g></g><g transform="translate(652.3456282873717 204.48708039507846) rotate(0 11 10)"><text x="0" y="14" font-family="Virgil, Segoe UI Emoji" font-size="16px" fill="#000000" text-anchor="start" style="white-space: pre;" direction="ltr">99</text></g><g transform="translate(723.1015826003163 198.55722195336716) rotate(0 3 10)"><text x="0" y="14" font-family="Virgil, Segoe UI Emoji" font-size="16px" fill="#000000" text-anchor="start" style="white-space: pre;" direction="ltr">1</text></g><g transform="translate(555.0173375346576 277.63527245874525) rotate(0 76 30)"><text x="0" y="14" font-family="Virgil, Segoe UI Emoji" font-size="16px" fill="#000000" text-anchor="start" style="white-space: pre;" direction="ltr">a = rand()%100</text><text x="0" y="34" font-family="Virgil, Segoe UI Emoji" font-size="16px" fill="#000000" text-anchor="start" style="white-space: pre;" direction="ltr">if a &lt; 99 return 0</text><text x="0" y="54" font-family="Virgil, Segoe UI Emoji" font-size="16px" fill="#000000" text-anchor="start" style="white-space: pre;" direction="ltr">if a &lt; 100 return 1</text></g></svg>